<?xml version="1.0" standalone="no"?>
<!DOCTYPE svg PUBLIC "-//W3C//DTD SVG 20010904//EN"
 "http://www.w3.org/TR/2001/REC-SVG-20010904/DTD/svg10.dtd">
<svg version="1.0" xmlns="http://www.w3.org/2000/svg"
 width="260.000000pt" height="260.000000pt" viewBox="0 0 260.000000 260.000000"
 preserveAspectRatio="xMidYMid meet">
<metadata>
Created by potrace 1.11, written by Peter Selinger 2001-2013
</metadata>
<g transform="translate(0.000000,260.000000) scale(0.100000,-0.100000)"
fill="#000000" stroke="none">
<path d="M350 1916 l0 -396 110 0 110 0 0 146 0 145 27 -3 c23 -3 39 -24 109
-143 l82 -140 122 -3 123 -3 -18 28 c-10 15 -61 93 -114 171 l-95 144 42 35
c74 61 106 155 82 243 -17 65 -55 109 -119 139 -54 25 -64 26 -258 29 l-203 3
0 -395z m352 204 c25 -31 23 -83 -5 -116 -18 -21 -35 -28 -75 -32 l-52 -5 0
93 0 92 57 -4 c43 -4 61 -10 75 -28z"/>
<path d="M1110 1915 l0 -395 235 0 236 0 -3 88 -3 87 -127 3 -128 3 0 69 0 70
120 0 120 0 0 90 0 90 -120 0 -120 0 0 60 0 60 130 0 130 0 0 85 0 85 -235 0
-235 0 0 -395z"/>
<path d="M1720 1915 l0 -395 105 0 105 0 0 129 0 128 80 6 c180 14 280 109
280 267 0 87 -13 128 -55 178 -60 69 -111 82 -330 82 l-185 0 0 -395z m336
200 c8 -11 14 -38 14 -61 0 -55 -42 -94 -101 -94 l-39 0 0 91 0 91 56 -4 c40
-3 61 -10 70 -23z"/>
<path d="M1624 1461 c-44 -11 -72 -34 -129 -110 -69 -90 -83 -118 -95 -197 -6
-38 -18 -89 -27 -114 -15 -43 -15 -51 5 -142 21 -101 45 -146 89 -169 31 -17
39 -5 48 72 l7 58 46 7 c27 4 72 2 106 -5 41 -9 62 -9 69 -2 28 28 -62 52
-149 40 -32 -4 -60 -6 -63 -4 -8 8 31 83 53 103 51 45 147 61 284 46 56 -6 67
-4 94 16 16 12 33 18 37 14 42 -49 107 -144 117 -173 7 -20 13 -73 14 -118 0
-60 4 -83 13 -83 17 1 69 47 116 105 l41 50 0 116 c0 86 -5 136 -21 195 -12
43 -24 91 -26 106 -5 29 -30 55 -79 85 -16 10 -52 33 -80 51 -27 18 -60 35
-74 38 -14 2 -44 9 -68 14 -48 11 -281 12 -328 1z"/>
<path d="M495 1374 c-64 -20 -96 -51 -97 -95 -1 -27 -14 -48 -66 -104 -35 -38
-78 -77 -96 -85 -25 -12 -33 -23 -39 -60 -5 -25 -9 -61 -9 -80 -1 -56 20 -161
35 -179 8 -9 31 -50 51 -91 19 -41 45 -91 56 -110 29 -50 27 -110 -5 -140 -14
-13 -25 -28 -25 -33 0 -18 75 5 104 31 27 26 28 30 23 100 -3 40 -10 79 -15
85 -14 20 -34 119 -30 157 2 27 8 36 26 38 24 4 30 -16 11 -35 -8 -8 -8 -17 0
-32 10 -17 15 -19 31 -11 16 8 20 8 20 -3 0 -40 63 -45 75 -6 5 14 12 18 31
13 15 -4 24 -2 24 5 0 18 -62 51 -95 51 -26 0 -27 2 -15 14 12 12 25 13 64 5
54 -10 66 -6 66 22 0 25 8 24 32 -6 37 -47 49 -33 42 46 -7 70 -7 71 14 60 21
-11 62 -58 62 -71 0 -4 -9 -10 -21 -13 -13 -4 -20 -12 -17 -24 3 -14 13 -18
53 -19 28 0 56 6 63 13 18 17 32 16 32 -2 0 -26 -4 -29 -31 -27 -28 3 -90 -26
-97 -46 -2 -7 5 -12 16 -12 11 0 26 -10 34 -22 13 -20 18 -21 42 -10 14 6 26
19 26 27 0 9 5 13 10 10 6 -3 10 -43 10 -88 1 -105 27 -167 90 -210 29 -20 85
-24 60 -4 -49 38 -68 137 -36 183 8 11 23 47 35 79 11 33 27 78 35 100 18 49
20 205 3 255 -9 25 -19 36 -38 40 -18 3 -42 25 -72 65 -52 69 -81 88 -162 110
-32 8 -59 16 -60 17 -1 2 -10 17 -19 35 -36 71 -117 91 -231 57z m-65 -509
c-22 -26 -30 -16 -12 15 12 21 18 25 20 14 2 -8 -2 -21 -8 -29z m430 13 c0 -5
-4 -8 -10 -8 -5 0 -10 10 -10 23 0 18 2 19 10 7 5 -8 10 -18 10 -22z m-305
-16 c-22 -5 -27 1 -19 23 7 17 8 17 21 -1 12 -17 12 -19 -2 -22z"/>
<path d="M1931 899 c-55 -7 -77 -24 -60 -45 7 -9 20 -8 52 3 28 10 62 13 105
9 89 -8 79 21 -13 36 -16 3 -54 1 -84 -3z"/>
<path d="M1610 830 c0 -5 -13 -10 -29 -10 -17 0 -33 -5 -36 -10 -11 -18 16
-41 38 -34 14 4 25 0 37 -16 12 -16 23 -21 38 -15 12 3 22 13 22 21 0 12 7 14
30 9 39 -9 38 4 -4 38 -34 27 -96 38 -96 17z"/>
<path d="M1901 810 c-34 -33 -34 -58 -1 -37 17 10 22 8 35 -11 20 -27 40 -28
58 -2 9 13 23 19 38 18 18 -2 25 2 27 20 3 19 -1 22 -27 22 -16 0 -33 5 -36
10 -13 21 -62 10 -94 -20z"/>
<path d="M2166 655 c-3 -8 -1 -15 4 -15 6 0 10 7 10 15 0 8 -2 15 -4 15 -2 0
-6 -7 -10 -15z"/>
<path d="M1501 634 c0 -11 3 -14 6 -6 3 7 2 16 -1 19 -3 4 -6 -2 -5 -13z"/>
<path d="M1756 611 c-9 -14 40 -45 59 -37 23 9 19 35 -5 29 -11 -3 -26 0 -34
6 -9 8 -16 8 -20 2z"/>
<path d="M700 581 c0 -6 -14 -11 -32 -11 -29 0 -31 -1 -17 -16 13 -12 20 -13
42 -3 28 13 34 24 17 34 -5 3 -10 1 -10 -4z"/>
<path d="M1710 510 c-13 -24 0 -54 30 -70 10 -5 43 -10 73 -10 58 0 87 19 87
56 0 35 -20 44 -102 44 -67 0 -79 -3 -88 -20z"/>
<path d="M583 503 c-13 -3 -23 -12 -23 -21 1 -46 123 -76 186 -46 41 20 47 58
12 68 -25 6 -140 6 -175 -1z"/>
<path d="M1575 478 c-31 -84 -37 -126 -41 -295 l-5 -183 121 0 120 0 0 38 c0
45 -20 116 -55 200 -15 35 -30 86 -34 112 -6 37 -17 58 -44 85 -21 21 -37 41
-37 46 0 14 -20 11 -25 -3z"/>
<path d="M451 404 c-15 -43 -12 -49 18 -28 13 10 21 24 19 37 -5 34 -23 30
-37 -9z"/>
<path d="M1423 118 c-16 -20 -34 -58 -43 -89 l-9 -29 65 0 64 0 0 39 c0 60
-15 91 -44 91 -13 0 -28 -6 -33 -12z"/>
<path d="M2167 63 c-7 -8 -22 -26 -34 -39 l-22 -24 84 0 c51 0 85 4 85 10 0
15 -48 54 -76 62 -17 4 -29 1 -37 -9z"/>
<path d="M990 35 l-34 -35 62 0 c54 0 62 3 62 18 0 20 -29 52 -46 52 -6 0 -25
-16 -44 -35z"/>
</g>
</svg>
